<svg width="70" height="48" viewBox="0 0 70 48" fill="none" xmlns="http://www.w3.org/2000/svg">
<rect x="0.5" y="0.5" width="69" height="47" rx="5.5" fill="white" stroke="#D9D9D9"/>
<path d="M29.4684 47L68.9684 35.5V42C68.9684 44.7614 66.7298 47 63.9684 47H29.4684Z" fill="#FD6020"/>
<path d="M29.8519 19.2216C30.6125 19.2216 31.4822 19.3289 32.1342 19.7587V21.9081C31.5909 21.2634 30.7212 20.8339 29.8519 20.8339C28.1136 20.9416 26.7013 22.4458 26.8099 24.165V24.3798C26.8102 26.0989 28.2229 27.3886 29.9613 27.3886C30.8304 27.3885 31.591 26.958 32.1342 26.3134V28.4628C31.3736 28.7852 30.6128 28.9999 29.7435 28.9999C27.0272 28.9999 24.8539 26.7429 24.8539 24.0566C24.8541 21.2631 27.0272 19.0069 29.8519 19.2216ZM46.9115 25.6689L49.5189 19.2216H51.475L47.4545 28.9999H46.4769L42.4564 19.2216H44.4125L46.9115 25.6689ZM21.1595 19.0068C22.1374 19.0068 23.1158 19.4363 23.8763 20.081L22.8988 21.371C22.4642 20.9413 21.9205 20.6182 21.3773 20.6181C20.7254 20.5106 20.1823 21.0486 20.0736 21.6933C20.0737 22.2304 20.3994 22.4452 21.4857 22.8749C23.6588 23.7346 24.2023 24.3794 24.3109 25.6689V25.9911C24.2023 27.7104 22.7896 29 21.0511 28.8925C19.7473 28.8925 18.4433 28.2473 17.7914 27.0654L18.9867 25.8837C19.3127 26.6359 20.0735 27.1728 20.9427 27.1728H21.0511C21.7031 27.1728 22.3549 26.5285 22.3549 25.7763C22.3549 25.3466 22.1377 25.0244 21.8119 24.8095C21.3774 24.5947 20.9427 24.3799 20.5082 24.2724C18.7698 23.7352 18.226 22.9826 18.226 21.6933V21.5859C18.3346 20.0816 19.6385 18.8995 21.1595 19.0068ZM9.85974 19.2216C12.4673 19.3291 14.5316 21.4779 14.4232 24.0566C14.4232 25.4535 13.7715 26.7438 12.6849 27.7109C11.7072 28.4629 10.5118 28.8924 9.31677 28.7851H6.59998V19.2216H9.85974ZM17.0306 28.7851H15.184V19.2216H17.0306V28.7851ZM57.5599 20.8339H54.1908V22.9824H57.4506V24.5947H54.1908V27.1728H57.5599V28.7851H52.3441V19.2216H57.5599V20.8339ZM61.4711 19.2216C63.6439 19.2217 64.8392 20.189 64.8392 22.0156C64.9478 23.4124 63.9692 24.5946 62.6654 24.8095L65.6 28.7851H63.3177L60.8187 24.9169H60.601V28.7851H58.7543V19.2216H61.4711ZM11.4896 21.5859C10.8378 21.0487 9.85977 20.7256 8.9906 20.8329H8.44666V27.1728H8.9906C9.85981 27.2802 10.8377 26.9581 11.4896 26.4208C12.1414 25.7761 12.4672 24.9161 12.4672 23.9491C12.467 23.0898 12.1413 22.2305 11.4896 21.5859ZM60.601 23.6269H61.1449C62.3399 23.6268 62.8831 23.0899 62.8832 22.123C62.8832 21.2634 62.3399 20.7256 61.1449 20.7255H60.601V23.6269Z" fill="black"/>
<path fill-rule="evenodd" clip-rule="evenodd" d="M37.6755 19C34.9591 19 32.6774 21.1491 32.6774 23.9429C32.6774 26.6292 34.8505 28.8858 37.6755 28.9932C40.5006 29.1007 42.6737 26.8441 42.7823 24.0503C42.6737 21.2565 40.5006 19 37.6755 19V19Z" fill="#FD6020"/>
</svg>
