<svg width="70" height="48" viewBox="0 0 70 48" fill="none" xmlns="http://www.w3.org/2000/svg">
<rect x="0.5" y="0.5" width="69" height="47" rx="5.5" fill="white" stroke="#D9D9D9"/>
<path d="M23.8353 25.1111C23.274 27.8164 20.8374 29.8507 17.9169 29.8507C17.2469 29.8507 16.6019 29.7433 16.0001 29.5454L14.6587 33.4814C15.6824 33.8179 16.7778 34 17.9169 34C22.8811 34 27.0219 30.5407 27.9762 25.9437L23.8353 25.1111Z" fill="#EC412A"/>
<path fill-rule="evenodd" clip-rule="evenodd" d="M47.9051 16.2222V27.6027L49.9474 28.4213L48.9813 30.666L46.9616 29.8542C46.5075 29.6637 46.2002 29.3736 45.9667 29.0459C45.7425 28.7106 45.5763 28.2524 45.5763 27.634V16.2222H47.9051ZM32.416 24.6805C32.4668 21.426 35.2383 18.8281 38.6014 18.878C41.4559 18.9213 43.8209 20.8546 44.4421 23.426L33.4022 27.9888C32.7609 27.0408 32.3964 25.9002 32.416 24.6805ZM34.9421 25.1368C34.927 25.0002 34.9162 24.8602 34.9203 24.719C34.952 22.8015 36.5837 21.2715 38.5651 21.3033C39.6436 21.3172 40.6013 21.7948 41.2487 22.534L34.9421 25.1368ZM41.0163 27.2497C40.3509 27.8756 39.4486 28.2569 38.4523 28.2432C37.7695 28.2321 37.1368 28.0344 36.5988 27.705L35.2651 29.76C36.1785 30.3182 37.2555 30.6486 38.4165 30.6659C40.1066 30.6902 41.647 30.0482 42.767 28.9882L41.0163 27.2497ZM56.405 21.3032C56.0072 21.3032 55.6248 21.3654 55.2676 21.4813L54.473 19.1787C55.0795 18.9828 55.729 18.8764 56.405 18.8764C59.3547 18.8764 61.8153 20.9026 62.3796 23.5941L59.9196 24.079C59.5881 22.495 58.1405 21.3032 56.405 21.3032ZM52.366 29.187L54.0282 27.3693C53.2858 26.7338 52.8184 25.8056 52.8184 24.771C52.8184 23.7374 53.2858 22.8097 54.0275 22.1746L52.3641 20.357C51.1031 21.4369 50.3085 23.015 50.3085 24.771C50.3085 26.5292 51.1037 28.1067 52.366 29.187ZM56.4048 28.24C58.1388 28.24 59.5862 27.0493 59.9196 25.4676L62.3789 25.9546C61.8119 28.6432 59.3519 30.6666 56.4048 30.6666C55.7284 30.6666 55.078 30.5599 54.4698 30.3631L55.2664 28.0612C55.6242 28.1768 56.0068 28.24 56.4048 28.24Z" fill="black"/>
<path d="M11.0688 31.7777L13.5489 28.5754C12.4419 27.4556 11.7432 25.8209 11.7432 23.9986C11.7432 22.1778 12.4412 20.543 13.548 19.4241L11.0665 16.2222C9.18543 18.1246 8 20.9035 8 23.9986C8 27.0954 9.18716 29.8753 11.0688 31.7777" fill="#1BA7DE"/>
<path d="M15.9982 18.4506C16.6 18.2533 17.2437 18.1462 17.9134 18.1462C20.8365 18.1462 23.2747 20.1831 23.834 22.8889L27.9762 22.0604C27.0257 17.4617 22.8821 14 17.9134 14C16.7758 14 15.6809 14.1818 14.6587 14.5167L15.9982 18.4506Z" fill="#FECA2F"/>
</svg>
